<?xml version="1.0" encoding="utf-8"?>
<!-- Generator: Adobe Illustrator 16.0.3, SVG Export Plug-In . SVG Version: 6.00 Build 0)  -->
<!DOCTYPE svg PUBLIC "-//W3C//DTD SVG 1.1//EN" "http://www.w3.org/Graphics/SVG/1.1/DTD/svg11.dtd">
<svg version="1.1" id="Layer_1" xmlns="http://www.w3.org/2000/svg" xmlns:xlink="http://www.w3.org/1999/xlink" x="0px" y="0px"
	 width="834.611px" height="179.974px" viewBox="0 0 834.611 179.974" enable-background="new 0 0 834.611 179.974"
	 xml:space="preserve">
<rect y="0.457" fill="#034EA2" width="255.118" height="170.077"/>
<polyline fill="#FFF200" points="127.571,19.354 129.672,25.917 136.546,25.888 130.959,29.909 133.118,36.444 127.571,32.374 
	122.011,36.448 124.17,29.909 118.575,25.888 125.461,25.917 127.571,19.354 "/>
<polyline fill="#FFF200" points="99.224,26.949 101.326,33.513 108.2,33.484 102.613,37.505 104.771,44.04 99.224,39.97 
	93.665,44.044 95.824,37.505 90.228,33.484 97.115,33.513 99.224,26.949 "/>
<polyline fill="#FFF200" points="78.475,47.7 80.575,54.263 87.45,54.235 81.863,58.255 84.021,64.792 78.474,60.72 72.915,64.796 
	75.074,58.257 69.478,54.235 76.365,54.265 78.475,47.7 "/>
<polyline fill="#FFF200" points="70.881,76.046 72.981,82.61 79.856,82.582 74.269,86.602 76.427,93.138 70.88,89.066 
	65.321,93.143 67.48,86.604 61.884,82.582 68.771,82.611 70.881,76.046 "/>
<polyline fill="#FFF200" points="78.477,104.393 80.577,110.956 87.452,110.929 81.864,114.947 84.022,121.484 78.475,117.413 
	72.916,121.489 75.076,114.95 69.479,110.928 76.367,110.957 78.477,104.393 "/>
<polyline fill="#FFF200" points="99.228,125.144 101.328,131.708 108.203,131.679 102.615,135.698 104.773,142.235 99.226,138.163 
	93.666,142.239 95.827,135.7 90.23,131.679 97.119,131.708 99.228,125.144 "/>
<polyline fill="#FFF200" points="127.577,132.736 129.677,139.301 136.552,139.271 130.964,143.291 133.122,149.828 
	127.575,145.756 122.015,149.832 124.175,143.293 118.58,139.271 125.468,139.301 127.577,132.736 "/>
<polyline fill="#FFF200" points="155.921,125.142 158.02,131.704 164.896,131.675 159.306,135.694 161.466,142.232 155.919,138.159 
	150.359,142.235 152.519,135.696 146.923,131.675 153.812,131.704 155.921,125.142 "/>
<polyline fill="#FFF200" points="176.671,104.39 178.769,110.953 185.645,110.925 180.056,114.944 182.216,121.481 176.669,117.409 
	171.109,121.485 173.269,114.946 167.673,110.925 174.562,110.953 176.671,104.39 "/>
<polyline fill="#FFF200" points="184.267,76.042 186.365,82.604 193.241,82.577 187.652,86.597 189.812,93.134 184.264,89.062 
	178.704,93.138 180.865,86.599 175.268,82.577 182.158,82.604 184.267,76.042 "/>
<polyline fill="#FFF200" points="176.671,47.698 178.769,54.261 185.644,54.234 180.055,58.253 182.216,64.79 176.668,60.718 
	171.108,64.794 173.269,58.255 167.673,54.232 174.562,54.261 176.671,47.698 "/>
<polyline fill="#FFF200" points="155.919,26.949 158.017,33.511 164.891,33.484 159.303,37.505 161.463,44.04 155.917,39.968 
	150.356,44.046 152.518,37.505 146.92,33.483 153.809,33.511 155.919,26.949 "/>
<path fill="#224F9F" d="M302.826,38.235L292.85,0.641h5.104l5.719,24.645c0.615,2.581,1.145,5.146,1.59,7.693
	c0.957-4.018,1.521-6.334,1.692-6.95l7.155-25.388h6.001l5.385,19.028c1.351,4.719,2.325,9.155,2.924,13.31
	c0.478-2.376,1.103-5.104,1.872-8.181l5.898-24.157h5l-10.309,37.595h-4.796l-7.924-28.645c-0.667-2.394-1.061-3.863-1.18-4.411
	c-0.394,1.727-0.761,3.197-1.103,4.411l-7.975,28.645H302.826z"/>
<path fill="#224F9F" d="M346.003,5.949V0.641h4.615v5.309H346.003z M346.003,38.235V11.001h4.615v27.234H346.003z"/>
<path fill="#224F9F" d="M368.459,34.106l0.667,4.078c-1.3,0.272-2.462,0.41-3.488,0.41c-1.676,0-2.975-0.266-3.897-0.795
	c-0.924-0.53-1.573-1.227-1.949-2.091c-0.376-0.862-0.564-2.68-0.564-5.449V14.591h-3.385v-3.59h3.385V4.257l4.591-2.771v9.515
	h4.642v3.59h-4.642v15.926c0,1.316,0.081,2.163,0.243,2.539s0.428,0.675,0.795,0.897c0.367,0.222,0.894,0.333,1.577,0.333
	C366.946,34.286,367.622,34.227,368.459,34.106z"/>
<path fill="#224F9F" d="M373.708,38.235V0.641h4.616V14.13c2.154-2.496,4.873-3.744,8.155-3.744c2.017,0,3.77,0.397,5.257,1.192
	s2.552,1.894,3.193,3.295c0.641,1.402,0.961,3.437,0.961,6.104v17.259h-4.615V20.977c0-2.308-0.5-3.987-1.501-5.039
	c-1-1.052-2.415-1.577-4.244-1.577c-1.368,0-2.654,0.355-3.859,1.064c-1.205,0.71-2.064,1.671-2.577,2.885s-0.77,2.89-0.77,5.026
	v14.899H373.708z"/>
<path fill="#224F9F" d="M429.058,34.106l0.666,4.078c-1.299,0.272-2.462,0.41-3.487,0.41c-1.676,0-2.975-0.266-3.897-0.795
	c-0.924-0.53-1.573-1.227-1.949-2.091c-0.377-0.862-0.564-2.68-0.564-5.449V14.591h-3.385v-3.59h3.385V4.257l4.591-2.771v9.515
	h4.642v3.59h-4.642v15.926c0,1.316,0.08,2.163,0.243,2.539c0.162,0.376,0.427,0.675,0.795,0.897
	c0.367,0.222,0.894,0.333,1.577,0.333C427.544,34.286,428.22,34.227,429.058,34.106z"/>
<path fill="#224F9F" d="M434.306,38.235V0.641h4.616V14.13c2.153-2.496,4.872-3.744,8.154-3.744c2.019,0,3.771,0.397,5.258,1.192
	s2.553,1.894,3.193,3.295c0.642,1.402,0.961,3.437,0.961,6.104v17.259h-4.616V20.977c0-2.308-0.499-3.987-1.499-5.039
	s-2.416-1.577-4.245-1.577c-1.367,0-2.653,0.355-3.858,1.064c-1.206,0.71-2.065,1.671-2.579,2.885
	c-0.513,1.214-0.769,2.89-0.769,5.026v14.899H434.306z"/>
<path fill="#224F9F" d="M482.894,29.465l4.771,0.59c-0.753,2.787-2.146,4.949-4.181,6.488s-4.634,2.308-7.796,2.308
	c-3.983,0-7.142-1.227-9.476-3.68c-2.333-2.453-3.5-5.894-3.5-10.322c0-4.581,1.18-8.138,3.539-10.668
	c2.359-2.529,5.419-3.795,9.181-3.795c3.642,0,6.616,1.239,8.924,3.718c2.309,2.479,3.462,5.967,3.462,10.464
	c0,0.273-0.009,0.684-0.025,1.23h-20.311c0.171,2.992,1.018,5.283,2.539,6.873c1.521,1.59,3.419,2.385,5.693,2.385
	c1.692,0,3.136-0.444,4.334-1.334C481.245,32.833,482.193,31.414,482.894,29.465z M467.739,22.003h15.207
	c-0.205-2.291-0.787-4.01-1.744-5.155c-1.471-1.777-3.377-2.667-5.719-2.667c-2.12,0-3.901,0.71-5.347,2.129
	S467.892,19.626,467.739,22.003z"/>
<path fill="#224F9F" d="M507.675,30.106l4.564-0.719c0.257,1.83,0.971,3.231,2.143,4.206c1.17,0.975,2.807,1.462,4.909,1.462
	c2.121,0,3.693-0.432,4.719-1.295c1.026-0.863,1.539-1.876,1.539-3.039c0-1.043-0.453-1.863-1.359-2.462
	c-0.632-0.41-2.205-0.932-4.719-1.564c-3.385-0.854-5.73-1.594-7.038-2.218s-2.3-1.487-2.975-2.591
	c-0.677-1.103-1.014-2.32-1.014-3.654c0-1.214,0.277-2.337,0.834-3.372c0.555-1.034,1.312-1.894,2.269-2.577
	c0.718-0.529,1.696-0.979,2.938-1.347c1.238-0.367,2.568-0.551,3.986-0.551c2.138,0,4.015,0.308,5.63,0.923
	c1.616,0.615,2.808,1.449,3.577,2.5c0.769,1.052,1.3,2.458,1.59,4.219l-4.514,0.615c-0.205-1.401-0.799-2.495-1.781-3.282
	c-0.984-0.786-2.373-1.18-4.168-1.18c-2.12,0-3.633,0.351-4.539,1.052s-1.359,1.521-1.359,2.462c0,0.599,0.188,1.137,0.563,1.615
	c0.377,0.496,0.967,0.906,1.77,1.231c0.462,0.171,1.821,0.563,4.078,1.18c3.266,0.871,5.543,1.586,6.835,2.141
	c1.29,0.557,2.303,1.364,3.038,2.424c0.735,1.061,1.103,2.377,1.103,3.949c0,1.539-0.448,2.987-1.346,4.347s-2.193,2.41-3.886,3.154
	s-3.607,1.115-5.744,1.115c-3.539,0-6.235-0.734-8.09-2.205C509.372,35.176,508.188,32.995,507.675,30.106z"/>
<path fill="#224F9F" d="M554.366,38.235v-4c-2.12,3.077-5.001,4.615-8.643,4.615c-1.607,0-3.106-0.308-4.5-0.923
	s-2.428-1.389-3.104-2.321c-0.675-0.931-1.149-2.072-1.423-3.423c-0.188-0.906-0.282-2.343-0.282-4.309V11.001h4.616v15.104
	c0,2.411,0.094,4.035,0.282,4.873c0.29,1.214,0.905,2.166,1.846,2.859c0.94,0.692,2.104,1.038,3.488,1.038s2.684-0.354,3.897-1.064
	c1.214-0.709,2.073-1.675,2.577-2.897c0.505-1.223,0.757-2.996,0.757-5.321V11.001h4.616v27.234H554.366z"/>
<path fill="#224F9F" d="M566.462,48.673V11.001h4.205v3.539c0.99-1.385,2.111-2.424,3.359-3.116c1.247-0.692,2.76-1.038,4.539-1.038
	c2.324,0,4.376,0.599,6.155,1.795c1.777,1.197,3.118,2.885,4.026,5.064c0.905,2.18,1.358,4.569,1.358,7.168
	c0,2.787-0.501,5.296-1.501,7.526c-1,2.231-2.453,3.941-4.359,5.129c-1.905,1.188-3.91,1.782-6.013,1.782
	c-1.539,0-2.92-0.324-4.143-0.975c-1.222-0.649-2.228-1.47-3.012-2.462v13.259H566.462z M570.642,24.772
	c0,3.505,0.708,6.095,2.129,7.77c1.418,1.676,3.136,2.514,5.154,2.514c2.052,0,3.808-0.867,5.269-2.604
	c1.462-1.734,2.194-4.423,2.194-8.064c0-3.471-0.715-6.069-2.143-7.796s-3.133-2.591-5.115-2.591c-1.967,0-3.707,0.92-5.22,2.757
	C571.398,18.596,570.642,21.268,570.642,24.772z"/>
<path fill="#224F9F" d="M596.406,48.673V11.001h4.206v3.539c0.991-1.385,2.111-2.424,3.359-3.116s2.761-1.038,4.539-1.038
	c2.325,0,4.376,0.599,6.154,1.795c1.778,1.197,3.12,2.885,4.026,5.064s1.359,4.569,1.359,7.168c0,2.787-0.5,5.296-1.5,7.526
	c-1,2.231-2.454,3.941-4.359,5.129c-1.907,1.188-3.911,1.782-6.014,1.782c-1.539,0-2.92-0.324-4.142-0.975
	c-1.224-0.649-2.228-1.47-3.014-2.462v13.259H596.406z M600.586,24.772c0,3.505,0.709,6.095,2.128,7.77
	c1.42,1.676,3.138,2.514,5.155,2.514c2.051,0,3.808-0.867,5.27-2.604c1.462-1.734,2.192-4.423,2.192-8.064
	c0-3.471-0.714-6.069-2.142-7.796s-3.132-2.591-5.115-2.591c-1.966,0-3.706,0.92-5.219,2.757
	C601.342,18.596,600.586,21.268,600.586,24.772z"/>
<path fill="#224F9F" d="M624.631,24.618c0-5.043,1.403-8.778,4.206-11.207c2.343-2.017,5.198-3.025,8.565-3.025
	c3.744,0,6.805,1.227,9.181,3.68c2.377,2.453,3.564,5.843,3.564,10.168c0,3.505-0.524,6.262-1.576,8.271
	c-1.051,2.009-2.582,3.569-4.59,4.68c-2.011,1.111-4.202,1.667-6.579,1.667c-3.813,0-6.895-1.222-9.244-3.667
	C625.807,32.739,624.631,29.218,624.631,24.618z M629.376,24.618c0,3.487,0.761,6.1,2.282,7.834
	c1.521,1.736,3.437,2.604,5.744,2.604c2.291,0,4.198-0.872,5.719-2.616c1.521-1.743,2.282-4.401,2.282-7.976
	c0-3.367-0.766-5.919-2.294-7.654c-1.531-1.735-3.433-2.604-5.707-2.604c-2.308,0-4.223,0.864-5.744,2.591
	S629.376,21.131,629.376,24.618z"/>
<path fill="#224F9F" d="M656.244,38.235V11.001h4.154v4.129c1.06-1.932,2.039-3.206,2.937-3.821s1.885-0.923,2.962-0.923
	c1.556,0,3.137,0.496,4.744,1.487l-1.59,4.282c-1.129-0.667-2.257-1-3.385-1c-1.01,0-1.916,0.304-2.719,0.91
	c-0.804,0.607-1.377,1.449-1.718,2.526c-0.514,1.642-0.77,3.437-0.77,5.386v14.258H656.244z"/>
<path fill="#224F9F" d="M684.598,34.106l0.667,4.078c-1.3,0.272-2.462,0.41-3.487,0.41c-1.677,0-2.975-0.266-3.898-0.795
	c-0.923-0.53-1.574-1.227-1.948-2.091c-0.377-0.862-0.564-2.68-0.564-5.449V14.591h-3.385v-3.59h3.385V4.257l4.59-2.771v9.515h4.642
	v3.59h-4.642v15.926c0,1.316,0.081,2.163,0.243,2.539c0.163,0.376,0.428,0.675,0.795,0.897c0.369,0.222,0.894,0.333,1.578,0.333
	C683.085,34.286,683.76,34.227,684.598,34.106z"/>
<path fill="#224F9F" d="M703.456,24.618c0-5.043,1.402-8.778,4.205-11.207c2.344-2.017,5.198-3.025,8.565-3.025
	c3.744,0,6.806,1.227,9.181,3.68c2.377,2.453,3.564,5.843,3.564,10.168c0,3.505-0.524,6.262-1.576,8.271
	c-1.051,2.009-2.582,3.569-4.59,4.68c-2.011,1.111-4.202,1.667-6.579,1.667c-3.812,0-6.895-1.222-9.244-3.667
	C704.631,32.739,703.456,29.218,703.456,24.618z M708.2,24.618c0,3.487,0.761,6.1,2.282,7.834c1.522,1.736,3.437,2.604,5.744,2.604
	c2.292,0,4.198-0.872,5.719-2.616c1.523-1.743,2.282-4.401,2.282-7.976c0-3.367-0.766-5.919-2.294-7.654
	c-1.531-1.735-3.433-2.604-5.707-2.604c-2.308,0-4.222,0.864-5.744,2.591C708.96,18.523,708.2,21.131,708.2,24.618z"/>
<path fill="#224F9F" d="M736.221,38.235V14.591h-4.077v-3.59h4.077V8.104c0-1.829,0.161-3.188,0.487-4.078
	c0.443-1.196,1.227-2.166,2.348-2.91C740.174,0.371,741.743,0,743.76,0c1.3,0,2.736,0.153,4.309,0.461l-0.692,4.026
	c-0.957-0.171-1.864-0.257-2.719-0.257c-1.402,0-2.393,0.3-2.975,0.897c-0.582,0.6-0.872,1.719-0.872,3.359v2.514h5.309v3.59h-5.309
	v23.645H736.221z"/>
<path fill="#224F9F" d="M775.852,34.106l0.666,4.078c-1.3,0.272-2.462,0.41-3.487,0.41c-1.677,0-2.975-0.266-3.897-0.795
	c-0.924-0.53-1.574-1.227-1.949-2.091c-0.377-0.862-0.564-2.68-0.564-5.449V14.591h-3.385v-3.59h3.385V4.257l4.591-2.771v9.515
	h4.642v3.59h-4.642v15.926c0,1.316,0.08,2.163,0.242,2.539s0.428,0.675,0.795,0.897c0.367,0.222,0.894,0.333,1.578,0.333
	C774.338,34.286,775.013,34.227,775.852,34.106z"/>
<path fill="#224F9F" d="M781.099,38.235V0.641h4.616V14.13c2.153-2.496,4.872-3.744,8.154-3.744c2.019,0,3.771,0.397,5.258,1.192
	s2.553,1.894,3.193,3.295c0.642,1.402,0.961,3.437,0.961,6.104v17.259h-4.616V20.977c0-2.308-0.499-3.987-1.499-5.039
	s-2.415-1.577-4.245-1.577c-1.367,0-2.653,0.355-3.858,1.064c-1.206,0.71-2.065,1.671-2.579,2.885
	c-0.513,1.214-0.769,2.89-0.769,5.026v14.899H781.099z"/>
<path fill="#224F9F" d="M829.687,29.465l4.771,0.59c-0.752,2.787-2.146,4.949-4.181,6.488c-2.033,1.539-4.634,2.308-7.796,2.308
	c-3.982,0-7.141-1.227-9.475-3.68c-2.333-2.453-3.501-5.894-3.501-10.322c0-4.581,1.18-8.138,3.539-10.668
	c2.359-2.529,5.419-3.795,9.181-3.795c3.642,0,6.616,1.239,8.924,3.718c2.309,2.479,3.462,5.967,3.462,10.464
	c0,0.273-0.008,0.684-0.025,1.23h-20.311c0.172,2.992,1.019,5.283,2.539,6.873s3.419,2.385,5.693,2.385
	c1.692,0,3.136-0.444,4.334-1.334C828.039,32.833,828.987,31.414,829.687,29.465z M814.532,22.003h15.207
	c-0.205-2.291-0.787-4.01-1.744-5.155c-1.47-1.777-3.377-2.667-5.719-2.667c-2.12,0-3.901,0.71-5.346,2.129
	C815.484,17.729,814.685,19.626,814.532,22.003z"/>
<path fill="#224F9F" d="M296.364,104.886V67.291h27.183v4.437h-22.208v11.515h20.797v4.41h-20.797v12.797h23.08v4.437H296.364z"/>
<path fill="#224F9F" d="M331.386,104.886V77.651h4.154v4.128c1.06-1.932,2.039-3.205,2.937-3.82
	c0.897-0.616,1.884-0.924,2.961-0.924c1.556,0,3.138,0.496,4.744,1.487l-1.59,4.283c-1.128-0.667-2.257-1-3.385-1
	c-1.009,0-1.915,0.304-2.718,0.91c-0.804,0.607-1.376,1.449-1.718,2.526c-0.513,1.642-0.77,3.437-0.77,5.386v14.258H331.386z"/>
<path fill="#224F9F" d="M367.433,101.526c-1.709,1.453-3.355,2.479-4.937,3.077c-1.581,0.598-3.278,0.897-5.09,0.897
	c-2.992,0-5.292-0.731-6.898-2.193c-1.607-1.462-2.411-3.329-2.411-5.603c0-1.333,0.304-2.552,0.911-3.655
	c0.606-1.103,1.401-1.986,2.385-2.653c0.982-0.666,2.09-1.171,3.32-1.513c0.906-0.239,2.273-0.471,4.104-0.692
	c3.727-0.444,6.471-0.975,8.231-1.59c0.018-0.633,0.026-1.035,0.026-1.205c0-1.881-0.437-3.206-1.309-3.976
	c-1.179-1.043-2.932-1.564-5.257-1.564c-2.171,0-3.774,0.381-4.809,1.142s-1.799,2.107-2.295,4.039l-4.514-0.615
	c0.411-1.933,1.086-3.492,2.026-4.681c0.939-1.188,2.299-2.103,4.077-2.744c1.778-0.641,3.838-0.962,6.181-0.962
	c2.324,0,4.214,0.274,5.667,0.821s2.521,1.235,3.206,2.064c0.684,0.829,1.162,1.876,1.436,3.141
	c0.154,0.787,0.231,2.206,0.231,4.258v6.154c0,4.291,0.098,7.006,0.295,8.142c0.196,1.139,0.585,2.228,1.167,3.271h-4.821
	C367.877,103.928,367.57,102.809,367.433,101.526z M367.048,91.218c-1.676,0.684-4.188,1.264-7.539,1.743
	c-1.897,0.273-3.24,0.581-4.026,0.924c-0.786,0.341-1.394,0.842-1.82,1.499c-0.428,0.659-0.642,1.39-0.642,2.193
	c0,1.231,0.466,2.257,1.397,3.077c0.932,0.821,2.296,1.231,4.091,1.231c1.777,0,3.359-0.389,4.744-1.168
	c1.385-0.777,2.401-1.842,3.052-3.191c0.495-1.044,0.743-2.583,0.743-4.616V91.218z"/>
<path fill="#224F9F" d="M377.76,96.757l4.564-0.719c0.256,1.829,0.97,3.231,2.142,4.206c1.17,0.975,2.808,1.462,4.91,1.462
	c2.12,0,3.693-0.432,4.719-1.296c1.026-0.862,1.539-1.876,1.539-3.038c0-1.044-0.453-1.864-1.359-2.462
	c-0.633-0.41-2.205-0.932-4.719-1.564c-3.385-0.854-5.731-1.594-7.039-2.219c-1.308-0.624-2.3-1.487-2.975-2.591
	c-0.676-1.103-1.014-2.319-1.014-3.653c0-1.214,0.278-2.338,0.834-3.372c0.555-1.034,1.312-1.894,2.27-2.577
	c0.718-0.53,1.696-0.979,2.937-1.347c1.239-0.367,2.568-0.552,3.987-0.552c2.137,0,4.014,0.308,5.629,0.924
	c1.615,0.615,2.809,1.448,3.577,2.5c0.77,1.052,1.3,2.458,1.59,4.219l-4.513,0.616c-0.205-1.403-0.8-2.497-1.782-3.283
	c-0.983-0.786-2.372-1.18-4.168-1.18c-2.12,0-3.633,0.351-4.539,1.051c-0.906,0.702-1.358,1.521-1.358,2.463
	c0,0.598,0.188,1.136,0.563,1.615c0.376,0.495,0.966,0.906,1.77,1.231c0.462,0.171,1.821,0.564,4.078,1.18
	c3.265,0.872,5.543,1.586,6.834,2.14c1.29,0.557,2.304,1.364,3.039,2.425c0.734,1.06,1.103,2.376,1.103,3.949
	c0,1.539-0.449,2.986-1.347,4.346s-2.192,2.411-3.885,3.154c-1.692,0.744-3.607,1.116-5.744,1.116c-3.539,0-6.236-0.735-8.091-2.205
	C379.457,101.825,378.273,99.646,377.76,96.757z"/>
<path fill="#224F9F" d="M406.601,104.886V77.651h4.129v3.82c0.855-1.333,1.992-2.406,3.411-3.218
	c1.419-0.813,3.034-1.219,4.847-1.219c2.018,0,3.672,0.42,4.962,1.257c1.291,0.838,2.201,2.009,2.732,3.514
	c2.153-3.181,4.957-4.771,8.411-4.771c2.7,0,4.777,0.748,6.231,2.244c1.452,1.496,2.18,3.8,2.18,6.912v18.694h-4.59V87.729
	c0-1.846-0.15-3.176-0.45-3.988c-0.299-0.812-0.843-1.466-1.627-1.962c-0.787-0.495-1.711-0.743-2.771-0.743
	c-1.915,0-3.505,0.637-4.77,1.91c-1.267,1.274-1.897,3.313-1.897,6.117v15.822h-4.616V87.191c0-2.052-0.377-3.591-1.129-4.617
	c-0.753-1.025-1.983-1.538-3.692-1.538c-1.3,0-2.501,0.342-3.604,1.025c-1.103,0.685-1.902,1.685-2.397,3.001
	c-0.496,1.316-0.744,3.214-0.744,5.693v14.13H406.601z"/>
<path fill="#224F9F" d="M468.935,104.886v-4c-2.12,3.077-5.001,4.615-8.643,4.615c-1.606,0-3.107-0.308-4.5-0.923
	c-1.394-0.615-2.429-1.389-3.104-2.321c-0.676-0.932-1.149-2.072-1.423-3.423c-0.188-0.906-0.282-2.343-0.282-4.309V77.651h4.616
	v15.104c0,2.411,0.094,4.034,0.282,4.873c0.291,1.213,0.906,2.166,1.846,2.858c0.94,0.692,2.104,1.039,3.488,1.039
	s2.684-0.354,3.897-1.065c1.215-0.708,2.072-1.675,2.577-2.897c0.504-1.221,0.757-2.995,0.757-5.32V77.651h4.616v27.234H468.935z"/>
<path fill="#224F9F" d="M479.184,96.757l4.564-0.719c0.257,1.829,0.971,3.231,2.143,4.206c1.17,0.975,2.807,1.462,4.91,1.462
	c2.12,0,3.692-0.432,4.718-1.296c1.026-0.862,1.539-1.876,1.539-3.038c0-1.044-0.453-1.864-1.359-2.462
	c-0.632-0.41-2.205-0.932-4.719-1.564c-3.385-0.854-5.73-1.594-7.038-2.219c-1.308-0.624-2.3-1.487-2.975-2.591
	c-0.677-1.103-1.014-2.319-1.014-3.653c0-1.214,0.277-2.338,0.834-3.372c0.555-1.034,1.312-1.894,2.269-2.577
	c0.718-0.53,1.696-0.979,2.938-1.347c1.238-0.367,2.568-0.552,3.986-0.552c2.138,0,4.015,0.308,5.63,0.924
	c1.616,0.615,2.808,1.448,3.577,2.5c0.769,1.052,1.3,2.458,1.59,4.219l-4.514,0.616c-0.205-1.403-0.799-2.497-1.781-3.283
	c-0.984-0.786-2.373-1.18-4.168-1.18c-2.12,0-3.633,0.351-4.539,1.051c-0.906,0.702-1.359,1.521-1.359,2.463
	c0,0.598,0.188,1.136,0.564,1.615c0.376,0.495,0.966,0.906,1.77,1.231c0.461,0.171,1.82,0.564,4.077,1.18
	c3.266,0.872,5.543,1.586,6.835,2.14c1.29,0.557,2.304,1.364,3.038,2.425c0.735,1.06,1.103,2.376,1.103,3.949
	c0,1.539-0.447,2.986-1.345,4.346c-0.898,1.359-2.194,2.411-3.887,3.154c-1.692,0.744-3.606,1.116-5.744,1.116
	c-3.539,0-6.235-0.735-8.09-2.205C480.88,101.825,479.697,99.646,479.184,96.757z"/>
<path fill="#224F9F" d="M517.72,98.809v-10.31h-10.232V84.19h10.232V73.958h4.359V84.19h10.231v4.309H522.08v10.31H517.72z"/>
<path fill="#224F9F" d="M555.349,104.886V67.291h14.182c2.496,0,4.401,0.119,5.719,0.358c1.847,0.308,3.394,0.894,4.642,1.757
	s2.252,2.073,3.013,3.629s1.142,3.266,1.142,5.129c0,3.197-1.017,5.902-3.052,8.116c-2.035,2.215-5.71,3.321-11.027,3.321h-9.642
	v15.284H555.349z M560.325,85.165h9.719c3.215,0,5.497-0.599,6.847-1.795c1.351-1.197,2.026-2.881,2.026-5.053
	c0-1.572-0.397-2.919-1.192-4.039c-0.795-1.119-1.843-1.858-3.142-2.218c-0.837-0.222-2.385-0.333-4.642-0.333h-9.616V85.165z"/>
<path fill="#224F9F" d="M590.473,104.886V77.651h4.154v4.128c1.06-1.932,2.039-3.205,2.937-3.82
	c0.897-0.616,1.885-0.924,2.962-0.924c1.556,0,3.137,0.496,4.744,1.487l-1.59,4.283c-1.128-0.667-2.257-1-3.385-1
	c-1.009,0-1.916,0.304-2.719,0.91c-0.804,0.607-1.377,1.449-1.718,2.526c-0.513,1.642-0.77,3.437-0.77,5.386v14.258H590.473z"/>
<path fill="#224F9F" d="M607.032,91.269c0-5.044,1.4-8.779,4.206-11.207c2.341-2.017,5.195-3.026,8.565-3.026
	c3.743,0,6.804,1.228,9.181,3.681c2.375,2.453,3.564,5.842,3.564,10.168c0,3.505-0.527,6.262-1.578,8.27
	c-1.052,2.01-2.581,3.569-4.591,4.682c-2.008,1.11-4.201,1.666-6.576,1.666c-3.813,0-6.895-1.223-9.246-3.667
	C608.207,99.389,607.032,95.867,607.032,91.269z M611.776,91.269c0,3.487,0.76,6.1,2.282,7.834c1.521,1.735,3.437,2.604,5.745,2.604
	c2.29,0,4.195-0.872,5.719-2.616c1.521-1.743,2.282-4.402,2.282-7.975c0-3.369-0.766-5.92-2.297-7.656
	c-1.529-1.734-3.432-2.603-5.704-2.603c-2.309,0-4.224,0.863-5.745,2.591C612.536,85.173,611.776,87.781,611.776,91.269z"/>
<path fill="#224F9F" d="M637.847,107.143l4.488,0.667c0.188,1.385,0.709,2.393,1.564,3.026c1.145,0.854,2.709,1.282,4.692,1.282
	c2.138,0,3.787-0.429,4.95-1.282c1.162-0.856,1.948-2.052,2.359-3.591c0.239-0.94,0.35-2.915,0.333-5.924
	c-2.018,2.376-4.53,3.564-7.54,3.564c-3.743,0-6.642-1.352-8.693-4.052c-2.051-2.701-3.077-5.941-3.077-9.719
	c0-2.6,0.471-4.997,1.41-7.194c0.94-2.196,2.304-3.894,4.091-5.09c1.786-1.197,3.885-1.796,6.296-1.796
	c3.214,0,5.863,1.3,7.949,3.898v-3.282h4.257v23.542c0,4.239-0.432,7.243-1.295,9.013s-2.23,3.168-4.103,4.194
	c-1.872,1.025-4.177,1.538-6.911,1.538c-3.248,0-5.873-0.731-7.873-2.193S637.78,110.082,637.847,107.143z M641.668,90.781
	c0,3.572,0.709,6.181,2.129,7.821c1.419,1.642,3.196,2.462,5.334,2.462c2.119,0,3.897-0.816,5.334-2.449
	c1.437-1.632,2.154-4.192,2.154-7.68c0-3.334-0.74-5.848-2.219-7.54c-1.479-1.692-3.261-2.539-5.347-2.539
	c-2.052,0-3.795,0.834-5.231,2.5C642.387,85.023,641.668,87.499,641.668,90.781z"/>
<path fill="#224F9F" d="M668.586,104.886V77.651h4.154v4.128c1.061-1.932,2.04-3.205,2.938-3.82
	c0.897-0.616,1.884-0.924,2.961-0.924c1.557,0,3.139,0.496,4.744,1.487l-1.59,4.283c-1.128-0.667-2.257-1-3.385-1
	c-1.009,0-1.915,0.304-2.719,0.91c-0.803,0.607-1.376,1.449-1.718,2.526c-0.513,1.642-0.77,3.437-0.77,5.386v14.258H668.586z"/>
<path fill="#224F9F" d="M704.635,101.526c-1.711,1.453-3.355,2.479-4.936,3.077c-1.582,0.598-3.279,0.897-5.092,0.897
	c-2.992,0-5.291-0.731-6.898-2.193s-2.41-3.329-2.41-5.603c0-1.333,0.304-2.552,0.911-3.655c0.605-1.103,1.4-1.986,2.385-2.653
	c0.982-0.666,2.089-1.171,3.32-1.513c0.905-0.239,2.274-0.471,4.103-0.692c3.727-0.444,6.471-0.975,8.232-1.59
	c0.018-0.633,0.025-1.035,0.025-1.205c0-1.881-0.436-3.206-1.308-3.976c-1.18-1.043-2.932-1.564-5.258-1.564
	c-2.172,0-3.773,0.381-4.807,1.142c-1.036,0.761-1.802,2.107-2.297,4.039l-4.513-0.615c0.41-1.933,1.085-3.492,2.025-4.681
	c0.941-1.188,2.3-2.103,4.078-2.744c1.777-0.641,3.838-0.962,6.18-0.962c2.326,0,4.214,0.274,5.668,0.821
	c1.453,0.547,2.521,1.235,3.205,2.064s1.162,1.876,1.437,3.141c0.153,0.787,0.23,2.206,0.23,4.258v6.154
	c0,4.291,0.099,7.006,0.296,8.142c0.195,1.139,0.584,2.228,1.166,3.271h-4.821C705.079,103.928,704.771,102.809,704.635,101.526z
	 M704.25,91.218c-1.675,0.684-4.188,1.264-7.54,1.743c-1.897,0.273-3.239,0.581-4.026,0.924c-0.787,0.341-1.393,0.842-1.82,1.499
	c-0.428,0.659-0.642,1.39-0.642,2.193c0,1.231,0.466,2.257,1.399,3.077c0.931,0.821,2.294,1.231,4.089,1.231
	c1.777,0,3.359-0.389,4.744-1.168c1.385-0.777,2.403-1.842,3.052-3.191c0.495-1.044,0.744-2.583,0.744-4.616V91.218z"/>
<path fill="#224F9F" d="M716.808,104.886V77.651h4.129v3.82c0.854-1.333,1.99-2.406,3.41-3.218c1.419-0.813,3.034-1.219,4.848-1.219
	c2.016,0,3.671,0.42,4.961,1.257c1.292,0.838,2.201,2.009,2.732,3.514c2.153-3.181,4.957-4.771,8.411-4.771
	c2.7,0,4.777,0.748,6.231,2.244c1.452,1.496,2.18,3.8,2.18,6.912v18.694h-4.59V87.729c0-1.846-0.15-3.176-0.45-3.988
	c-0.298-0.812-0.842-1.466-1.627-1.962c-0.787-0.495-1.711-0.743-2.771-0.743c-1.915,0-3.505,0.637-4.77,1.91
	c-1.267,1.274-1.897,3.313-1.897,6.117v15.822h-4.616V87.191c0-2.052-0.377-3.591-1.128-4.617c-0.754-1.025-1.984-1.538-3.693-1.538
	c-1.3,0-2.501,0.342-3.604,1.025c-1.104,0.685-1.902,1.685-2.397,3.001c-0.497,1.316-0.743,3.214-0.743,5.693v14.13H716.808z"/>
<path fill="#224F9F" d="M761.293,104.886V77.651h4.129v3.82c0.854-1.333,1.99-2.406,3.41-3.218c1.419-0.813,3.034-1.219,4.848-1.219
	c2.016,0,3.671,0.42,4.961,1.257c1.29,0.838,2.201,2.009,2.732,3.514c2.153-3.181,4.957-4.771,8.411-4.771
	c2.7,0,4.777,0.748,6.231,2.244c1.452,1.496,2.18,3.8,2.18,6.912v18.694h-4.59V87.729c0-1.846-0.15-3.176-0.45-3.988
	c-0.3-0.812-0.842-1.466-1.627-1.962c-0.787-0.495-1.711-0.743-2.77-0.743c-1.916,0-3.506,0.637-4.771,1.91
	c-1.267,1.274-1.897,3.313-1.897,6.117v15.822h-4.616V87.191c0-2.052-0.377-3.591-1.128-4.617c-0.754-1.025-1.984-1.538-3.693-1.538
	c-1.3,0-2.501,0.342-3.604,1.025c-1.103,0.685-1.902,1.685-2.397,3.001c-0.497,1.316-0.743,3.214-0.743,5.693v14.13H761.293z"/>
<path fill="#224F9F" d="M824.42,96.115l4.77,0.59c-0.751,2.787-2.144,4.949-4.18,6.488c-2.034,1.539-4.632,2.308-7.796,2.308
	c-3.982,0-7.141-1.227-9.475-3.681c-2.334-2.452-3.502-5.894-3.502-10.321c0-4.582,1.18-8.138,3.539-10.668s5.421-3.796,9.181-3.796
	c3.642,0,6.616,1.24,8.925,3.719c2.308,2.479,3.462,5.967,3.462,10.464c0,0.272-0.008,0.684-0.025,1.23h-20.311
	c0.172,2.991,1.018,5.283,2.539,6.873c1.522,1.59,3.42,2.385,5.692,2.385c1.692,0,3.139-0.445,4.334-1.334
	C822.771,99.482,823.72,98.064,824.42,96.115z M809.264,88.653h15.208c-0.205-2.292-0.785-4.01-1.744-5.155
	c-1.47-1.778-3.375-2.667-5.719-2.667c-2.119,0-3.902,0.71-5.346,2.128C810.217,84.378,809.418,86.276,809.264,88.653z"/>
<path fill="#224F9F" d="M293.953,155.919c0-5.044,1.401-8.779,4.206-11.207c2.342-2.018,5.197-3.026,8.565-3.026
	c3.744,0,6.804,1.228,9.181,3.68c2.376,2.454,3.564,5.843,3.564,10.169c0,3.504-0.526,6.261-1.577,8.27
	c-1.051,2.01-2.582,3.569-4.59,4.681c-2.009,1.11-4.202,1.667-6.578,1.667c-3.813,0-6.895-1.223-9.245-3.667
	C295.128,164.039,293.953,160.517,293.953,155.919z M298.697,155.919c0,3.487,0.76,6.1,2.282,7.833
	c1.521,1.736,3.437,2.604,5.745,2.604c2.291,0,4.197-0.872,5.719-2.616c1.521-1.744,2.282-4.403,2.282-7.976
	c0-3.368-0.766-5.92-2.295-7.655c-1.53-1.734-3.432-2.603-5.706-2.603c-2.308,0-4.223,0.863-5.745,2.59
	C299.458,149.823,298.697,152.431,298.697,155.919z"/>
<path fill="#224F9F" d="M326.718,169.536v-23.645h-4.078v-3.59h4.078v-2.898c0-1.829,0.162-3.188,0.487-4.077
	c0.444-1.197,1.227-2.168,2.347-2.912c1.119-0.743,2.688-1.114,4.706-1.114c1.299,0,2.735,0.154,4.308,0.462l-0.692,4.026
	c-0.958-0.172-1.863-0.257-2.718-0.257c-1.402,0-2.394,0.299-2.975,0.897c-0.582,0.598-0.872,1.719-0.872,3.359v2.514h5.309v3.59
	h-5.309v23.645H326.718z"/>
<path fill="#224F9F" d="M366.348,165.407l0.667,4.077c-1.3,0.272-2.462,0.41-3.488,0.41c-1.676,0-2.975-0.266-3.897-0.795
	c-0.924-0.53-1.573-1.227-1.949-2.091c-0.376-0.862-0.564-2.679-0.564-5.448v-15.669h-3.385v-3.59h3.385v-6.745l4.591-2.77v9.515
	h4.642v3.59h-4.642v15.926c0,1.315,0.081,2.161,0.243,2.538c0.162,0.376,0.428,0.675,0.795,0.897
	c0.368,0.223,0.894,0.334,1.577,0.334C364.835,165.587,365.51,165.526,366.348,165.407z"/>
<path fill="#224F9F" d="M371.597,169.536v-37.595h4.615v13.488c2.154-2.496,4.873-3.744,8.155-3.744c2.018,0,3.77,0.396,5.257,1.192
	c1.487,0.795,2.552,1.894,3.193,3.296c0.641,1.401,0.961,3.437,0.961,6.104v17.259h-4.615v-17.259c0-2.309-0.5-3.989-1.501-5.04
	c-1-1.052-2.415-1.576-4.244-1.576c-1.367,0-2.653,0.354-3.859,1.063c-1.205,0.71-2.064,1.671-2.577,2.886
	c-0.513,1.213-0.77,2.889-0.77,5.026v14.899H371.597z"/>
<path fill="#224F9F" d="M420.185,160.766l4.77,0.59c-0.753,2.786-2.146,4.949-4.18,6.488c-2.035,1.538-4.634,2.308-7.796,2.308
	c-3.984,0-7.143-1.227-9.476-3.681c-2.334-2.452-3.501-5.894-3.501-10.321c0-4.582,1.18-8.138,3.539-10.668
	c2.359-2.531,5.419-3.796,9.181-3.796c3.642,0,6.616,1.239,8.925,3.719c2.308,2.479,3.462,5.967,3.462,10.463
	c0,0.273-0.009,0.684-0.026,1.231h-20.311c0.171,2.991,1.018,5.282,2.539,6.872s3.419,2.386,5.693,2.386
	c1.692,0,3.137-0.445,4.334-1.334C418.535,164.133,419.484,162.715,420.185,160.766z M405.029,153.303h15.207
	c-0.205-2.291-0.786-4.009-1.743-5.154c-1.471-1.778-3.377-2.667-5.719-2.667c-2.12,0-3.903,0.709-5.348,2.128
	S405.183,150.926,405.029,153.303z"/>
<path fill="#224F9F" d="M447.505,169.536v-37.595h27.183v4.437H452.48v11.514h20.798v4.411H452.48V165.1h23.08v4.437H447.505z"/>
<path fill="#224F9F" d="M500.427,169.536v-4.001c-2.12,3.077-5,4.616-8.642,4.616c-1.608,0-3.108-0.308-4.502-0.923
	c-1.393-0.616-2.428-1.389-3.103-2.322c-0.675-0.931-1.15-2.072-1.423-3.423c-0.189-0.906-0.282-2.342-0.282-4.308v-16.874h4.616
	v15.104c0,2.41,0.093,4.034,0.282,4.872c0.29,1.214,0.905,2.166,1.847,2.858c0.938,0.692,2.103,1.04,3.487,1.04
	s2.683-0.355,3.897-1.065c1.214-0.708,2.073-1.675,2.577-2.897c0.505-1.222,0.757-2.996,0.757-5.32v-14.592h4.616v27.234H500.427z"
	/>
<path fill="#224F9F" d="M512.47,169.536v-27.234h4.154v4.129c1.061-1.933,2.04-3.206,2.938-3.821s1.884-0.924,2.961-0.924
	c1.557,0,3.138,0.495,4.744,1.488l-1.59,4.282c-1.128-0.667-2.257-1-3.385-1c-1.008,0-1.914,0.304-2.719,0.909
	c-0.803,0.607-1.376,1.45-1.718,2.527c-0.513,1.641-0.77,3.436-0.77,5.385v14.259H512.47z"/>
<path fill="#224F9F" d="M529.029,155.919c0-5.044,1.401-8.779,4.206-11.207c2.342-2.018,5.197-3.026,8.565-3.026
	c3.744,0,6.804,1.228,9.181,3.68c2.376,2.454,3.564,5.843,3.564,10.169c0,3.504-0.525,6.261-1.577,8.27
	c-1.052,2.01-2.581,3.569-4.591,4.681c-2.009,1.11-4.201,1.667-6.577,1.667c-3.813,0-6.895-1.223-9.245-3.667
	C530.205,164.039,529.029,160.517,529.029,155.919z M533.773,155.919c0,3.487,0.761,6.1,2.282,7.833
	c1.521,1.736,3.437,2.604,5.745,2.604c2.29,0,4.196-0.872,5.719-2.616c1.521-1.744,2.282-4.403,2.282-7.976
	c0-3.368-0.766-5.92-2.295-7.655c-1.53-1.734-3.433-2.603-5.706-2.603c-2.309,0-4.224,0.863-5.745,2.59
	S533.773,152.431,533.773,155.919z"/>
<path fill="#224F9F" d="M560.692,179.974v-37.672h4.206v3.539c0.99-1.385,2.11-2.425,3.359-3.117
	c1.247-0.692,2.76-1.038,4.539-1.038c2.324,0,4.375,0.598,6.154,1.796c1.777,1.196,3.119,2.884,4.026,5.063
	c0.905,2.18,1.359,4.569,1.359,7.169c0,2.786-0.501,5.294-1.501,7.525s-2.453,3.941-4.359,5.129
	c-1.906,1.188-3.91,1.783-6.013,1.783c-1.539,0-2.92-0.325-4.143-0.975s-2.228-1.471-3.013-2.462v13.259H560.692z M564.873,156.072
	c0,3.505,0.708,6.095,2.128,7.771c1.419,1.675,3.137,2.514,5.154,2.514c2.052,0,3.808-0.868,5.27-2.604
	c1.462-1.733,2.193-4.423,2.193-8.064c0-3.471-0.714-6.069-2.143-7.796c-1.427-1.727-3.132-2.59-5.114-2.59
	c-1.967,0-3.707,0.919-5.22,2.756C565.627,149.896,564.873,152.567,564.873,156.072z"/>
<path fill="#224F9F" d="M609.28,160.766l4.77,0.59c-0.752,2.786-2.146,4.949-4.18,6.488c-2.035,1.538-4.633,2.308-7.796,2.308
	c-3.984,0-7.143-1.227-9.476-3.681c-2.334-2.452-3.501-5.894-3.501-10.321c0-4.582,1.18-8.138,3.539-10.668
	c2.359-2.531,5.42-3.796,9.181-3.796c3.642,0,6.616,1.239,8.925,3.719c2.308,2.479,3.462,5.967,3.462,10.463
	c0,0.273-0.009,0.684-0.025,1.231h-20.311c0.17,2.991,1.017,5.282,2.538,6.872c1.522,1.59,3.42,2.386,5.693,2.386
	c1.692,0,3.138-0.445,4.334-1.334C607.629,164.133,608.579,162.715,609.28,160.766z M594.124,153.303h15.207
	c-0.205-2.291-0.786-4.009-1.743-5.154c-1.471-1.778-3.377-2.667-5.719-2.667c-2.12,0-3.903,0.709-5.348,2.128
	S594.278,150.926,594.124,153.303z"/>
<path fill="#224F9F" d="M638.352,166.177c-1.71,1.452-3.355,2.479-4.936,3.077c-1.582,0.598-3.279,0.897-5.092,0.897
	c-2.991,0-5.291-0.731-6.898-2.193c-1.606-1.462-2.41-3.329-2.41-5.603c0-1.334,0.304-2.553,0.911-3.655
	c0.605-1.103,1.4-1.986,2.385-2.653c0.982-0.667,2.089-1.172,3.32-1.513c0.906-0.24,2.274-0.471,4.103-0.692
	c3.728-0.445,6.472-0.975,8.232-1.59c0.018-0.634,0.025-1.035,0.025-1.206c0-1.881-0.436-3.205-1.308-3.975
	c-1.18-1.044-2.932-1.564-5.258-1.564c-2.171,0-3.773,0.381-4.807,1.141c-1.036,0.761-1.801,2.107-2.297,4.04l-4.513-0.616
	c0.41-1.932,1.086-3.491,2.025-4.681c0.941-1.188,2.3-2.103,4.077-2.744c1.779-0.641,3.839-0.961,6.181-0.961
	c2.326,0,4.215,0.273,5.668,0.821c1.453,0.546,2.521,1.234,3.205,2.063c0.685,0.83,1.163,1.877,1.437,3.143
	c0.153,0.786,0.23,2.205,0.23,4.257v6.154c0,4.291,0.099,7.005,0.296,8.142c0.195,1.138,0.585,2.227,1.166,3.271h-4.821
	C638.796,168.578,638.489,167.459,638.352,166.177z M637.967,155.867c-1.675,0.684-4.188,1.265-7.54,1.744
	c-1.897,0.273-3.239,0.581-4.026,0.923c-0.786,0.342-1.393,0.843-1.82,1.499c-0.427,0.659-0.642,1.391-0.642,2.194
	c0,1.23,0.466,2.257,1.399,3.077c0.931,0.82,2.294,1.23,4.089,1.23c1.778,0,3.359-0.389,4.744-1.167
	c1.385-0.777,2.403-1.842,3.052-3.192c0.496-1.043,0.744-2.582,0.744-4.616V155.867z"/>
<path fill="#224F9F" d="M650.525,169.536v-27.234h4.154v3.872c2-2.992,4.89-4.488,8.668-4.488c1.642,0,3.15,0.294,4.526,0.884
	s2.405,1.364,3.09,2.322c0.684,0.957,1.162,2.094,1.437,3.411c0.171,0.854,0.256,2.35,0.256,4.487v16.746h-4.615V152.97
	c0-1.881-0.18-3.286-0.539-4.22c-0.359-0.931-0.996-1.675-1.91-2.231c-0.915-0.554-1.987-0.832-3.219-0.832
	c-1.967,0-3.663,0.623-5.09,1.872c-1.428,1.248-2.142,3.616-2.142,7.104v14.874H650.525z"/>
<path fill="#224F9F" d="M721.057,131.941h4.976v21.721c0,3.777-0.429,6.778-1.282,9.001c-0.856,2.223-2.399,4.03-4.63,5.423
	c-2.231,1.395-5.159,2.091-8.782,2.091c-3.523,0-6.403-0.607-8.643-1.82c-2.241-1.214-3.839-2.971-4.796-5.271
	c-0.958-2.298-1.436-5.44-1.436-9.423v-21.721h4.975v21.695c0,3.265,0.302,5.671,0.909,7.218c0.608,1.548,1.649,2.74,3.129,3.578
	s3.286,1.257,5.425,1.257c3.657,0,6.266-0.83,7.821-2.487c1.555-1.659,2.334-4.848,2.334-9.565V131.941z"/>
<path fill="#224F9F" d="M734.459,169.536v-27.234h4.154v3.872c2-2.992,4.891-4.488,8.668-4.488c1.642,0,3.15,0.294,4.527,0.884
	c1.375,0.59,2.406,1.364,3.089,2.322c0.685,0.957,1.164,2.094,1.437,3.411c0.172,0.854,0.256,2.35,0.256,4.487v16.746h-4.615V152.97
	c0-1.881-0.18-3.286-0.539-4.22c-0.359-0.931-0.996-1.675-1.909-2.231c-0.916-0.554-1.988-0.832-3.22-0.832
	c-1.965,0-3.663,0.623-5.089,1.872c-1.429,1.248-2.143,3.616-2.143,7.104v14.874H734.459z"/>
<path fill="#224F9F" d="M764.43,137.249v-5.308h4.616v5.308H764.43z M764.43,169.536v-27.234h4.616v27.234H764.43z"/>
<path fill="#224F9F" d="M775.09,155.919c0-5.044,1.4-8.779,4.206-11.207c2.341-2.018,5.195-3.026,8.564-3.026
	c3.744,0,6.804,1.228,9.181,3.68c2.376,2.454,3.565,5.843,3.565,10.169c0,3.504-0.527,6.261-1.578,8.27
	c-1.052,2.01-2.581,3.569-4.591,4.681c-2.008,1.11-4.202,1.667-6.577,1.667c-3.813,0-6.894-1.223-9.245-3.667
	C776.266,164.039,775.09,160.517,775.09,155.919z M779.834,155.919c0,3.487,0.76,6.1,2.282,7.833
	c1.521,1.736,3.437,2.604,5.744,2.604c2.291,0,4.196-0.872,5.719-2.616c1.521-1.744,2.283-4.403,2.283-7.976
	c0-3.368-0.766-5.92-2.297-7.655c-1.528-1.734-3.433-2.603-5.705-2.603c-2.308,0-4.223,0.863-5.744,2.59
	C780.594,149.823,779.834,152.431,779.834,155.919z"/>
<path fill="#224F9F" d="M806.753,169.536v-27.234h4.154v3.872c2-2.992,4.889-4.488,8.668-4.488c1.642,0,3.148,0.294,4.525,0.884
	s2.406,1.364,3.091,2.322c0.683,0.957,1.162,2.094,1.437,3.411c0.169,0.854,0.256,2.35,0.256,4.487v16.746h-4.615V152.97
	c0-1.881-0.18-3.286-0.539-4.22c-0.359-0.931-0.996-1.675-1.911-2.231c-0.916-0.554-1.986-0.832-3.218-0.832
	c-1.967,0-3.663,0.623-5.092,1.872c-1.428,1.248-2.14,3.616-2.14,7.104v14.874H806.753z"/>
</svg>
