<svg id="svg" version="1.1" width="400" height="400" viewBox="0 0 400 400" xmlns="http://www.w3.org/2000/svg" xmlns:xlink="http://www.w3.org/1999/xlink" ><g id="svgg"><path id="path0" d="M0.000 200.000 L 0.000 400.000 200.000 400.000 L 400.000 400.000 400.000 200.000 L 400.000 0.000 200.000 0.000 L 0.000 0.000 0.000 200.000 M193.767 81.843 C 194.341 82.063,194.400 88.774,194.400 153.794 C 194.400 217.310,194.469 225.559,195.005 226.004 C 195.669 226.555,209.478 226.774,211.046 226.258 C 212.402 225.813,212.409 225.475,212.396 151.917 C 212.384 87.114,212.430 82.215,213.054 81.866 C 213.891 81.397,221.845 81.836,226.200 82.591 C 227.960 82.896,230.930 83.357,232.800 83.615 C 242.925 85.012,251.845 86.662,258.200 88.314 C 259.080 88.542,261.330 89.120,263.200 89.596 C 267.336 90.651,284.510 96.217,286.600 97.180 C 287.040 97.382,288.930 98.166,290.800 98.921 C 312.949 107.861,332.599 120.938,346.400 135.924 C 350.670 140.561,355.346 146.605,357.443 150.200 C 358.213 151.520,359.281 153.320,359.817 154.200 C 363.245 159.826,367.386 170.098,368.368 175.411 C 368.595 176.640,368.889 177.820,369.020 178.033 C 369.152 178.245,369.510 180.530,369.817 183.110 C 371.469 196.997,369.540 210.506,364.178 222.600 C 362.825 225.651,360.462 230.506,359.901 231.386 C 359.625 231.819,358.307 233.893,356.971 235.995 C 349.936 247.066,337.996 259.096,325.400 267.803 C 323.860 268.868,321.790 270.307,320.800 271.001 C 319.160 272.152,314.901 274.731,310.658 277.142 C 298.832 283.864,283.554 290.138,268.000 294.658 C 262.410 296.282,260.113 296.835,248.400 299.377 C 235.401 302.198,213.990 304.434,212.873 303.088 C 212.457 302.586,212.355 297.079,212.367 275.632 C 212.383 245.301,212.558 246.964,209.322 246.607 C 208.045 246.466,206.460 246.260,205.800 246.151 C 205.129 246.039,204.804 246.094,205.064 246.276 C 205.319 246.454,203.285 246.540,200.545 246.467 C 193.618 246.282,194.400 242.683,194.400 274.760 C 194.400 297.731,194.308 302.354,193.837 303.026 C 192.409 305.065,159.702 300.470,143.600 295.968 C 133.633 293.181,132.499 292.832,126.800 290.796 C 124.270 289.892,121.750 289.002,121.200 288.817 C 115.451 286.883,101.036 279.999,93.800 275.731 C 90.465 273.764,90.241 273.794,84.600 276.942 C 83.720 277.433,81.380 278.705,79.400 279.769 C 77.420 280.832,75.516 281.949,75.169 282.251 C 74.821 282.553,74.410 282.800,74.256 282.800 C 73.651 282.800,55.145 294.077,43.152 301.754 C 40.362 303.539,35.793 306.440,32.998 308.200 C 30.203 309.960,26.900 312.050,25.658 312.843 C 21.886 315.255,17.948 317.744,15.000 319.582 C 13.460 320.541,11.181 322.018,9.936 322.863 C 8.691 323.708,7.471 324.400,7.224 324.400 C 6.977 324.400,6.671 324.670,6.545 325.000 C 6.189 325.928,5.600 325.709,5.600 324.649 C 5.600 324.126,5.870 323.474,6.200 323.200 C 6.530 322.926,6.800 322.550,6.800 322.363 C 6.800 321.739,13.117 312.546,16.257 308.600 C 16.782 307.940,17.346 307.220,17.510 307.000 C 17.774 306.645,19.790 304.040,21.069 302.401 C 21.814 301.448,30.769 290.727,31.930 289.400 C 39.331 280.939,44.308 275.653,53.678 266.303 C 59.795 260.200,64.800 255.001,64.800 254.750 C 64.800 254.499,63.121 252.472,61.069 250.247 C 38.113 225.344,30.948 197.465,40.174 168.937 C 41.465 164.945,45.933 155.240,47.592 152.824 C 47.978 152.261,49.382 150.155,50.710 148.145 C 57.340 138.109,68.580 126.715,79.400 119.060 C 85.560 114.703,91.733 110.804,96.600 108.198 C 103.259 104.633,114.474 99.200,115.174 99.200 C 115.354 99.200,116.558 98.729,117.850 98.153 C 120.307 97.059,123.486 95.874,126.200 95.040 C 127.080 94.769,128.250 94.349,128.800 94.106 C 129.350 93.862,131.150 93.268,132.800 92.785 C 134.450 92.303,136.250 91.724,136.800 91.499 C 137.350 91.274,138.790 90.855,140.000 90.567 C 141.210 90.279,144.270 89.505,146.800 88.846 C 151.025 87.746,154.746 86.918,162.200 85.417 C 163.740 85.108,166.142 84.741,167.537 84.603 C 168.933 84.465,170.532 84.178,171.092 83.965 C 171.651 83.752,174.468 83.389,177.351 83.158 C 180.234 82.927,182.782 82.581,183.012 82.390 C 183.632 81.876,192.656 81.416,193.767 81.843 M175.600 111.416 C 175.270 111.483,172.570 111.841,169.600 112.210 C 150.899 114.535,130.652 119.124,116.600 124.220 C 114.400 125.018,111.880 125.909,111.000 126.200 C 109.511 126.692,107.289 127.559,105.400 128.386 C 93.489 133.600,85.824 137.542,80.704 141.087 C 79.661 141.809,78.714 142.400,78.600 142.400 C 78.280 142.400,70.877 147.901,68.416 149.966 C 63.807 153.836,57.213 160.572,54.874 163.800 C 53.780 165.310,50.000 171.166,50.000 171.351 C 50.000 171.476,49.372 172.868,48.606 174.444 C 35.175 202.041,53.179 233.054,94.200 252.982 C 104.749 258.107,111.213 260.718,120.400 263.564 C 123.370 264.484,126.340 265.429,127.000 265.662 C 127.660 265.896,128.920 266.273,129.800 266.499 C 130.680 266.725,132.079 267.156,132.908 267.455 C 133.738 267.755,134.862 268.000,135.407 268.000 C 135.951 268.000,137.433 268.335,138.698 268.745 C 141.020 269.496,143.465 270.054,148.600 271.006 C 150.140 271.292,152.390 271.717,153.600 271.950 C 158.812 272.958,161.724 273.391,175.060 275.140 C 176.634 275.346,178.524 275.392,179.260 275.241 L 180.600 274.967 180.706 260.784 C 180.815 246.229,180.677 244.649,179.257 244.235 C 178.896 244.130,177.070 243.686,175.200 243.248 C 156.881 238.960,140.299 228.478,132.194 216.065 C 131.427 214.891,130.796 213.811,130.791 213.665 C 130.786 213.519,130.430 212.950,130.000 212.400 C 129.570 211.850,129.214 211.006,129.209 210.524 C 129.204 210.042,129.020 209.536,128.800 209.400 C 128.580 209.264,128.400 208.983,128.400 208.776 C 128.400 208.102,130.168 208.383,131.600 209.285 C 134.756 211.272,141.724 214.800,142.494 214.800 C 142.794 214.800,143.224 214.984,143.448 215.208 C 145.131 216.891,161.826 221.809,172.000 223.619 C 179.869 225.018,179.661 225.004,180.261 224.184 C 180.952 223.240,181.074 113.260,180.386 111.974 C 179.992 111.238,177.746 110.976,175.600 111.416 M226.749 111.861 C 225.883 112.904,225.934 223.850,226.800 224.432 C 227.466 224.878,228.647 224.759,234.800 223.622 C 244.641 221.803,248.208 220.824,260.400 216.595 C 261.390 216.251,265.490 214.339,269.511 212.346 C 277.694 208.291,278.443 208.166,277.089 211.083 C 271.032 224.138,254.740 236.435,236.400 241.794 C 227.138 244.500,227.041 244.537,226.495 245.600 C 225.980 246.603,225.902 274.437,226.413 274.947 C 226.820 275.353,229.574 275.460,231.682 275.152 C 232.847 274.982,236.140 274.565,239.000 274.225 C 243.897 273.643,246.875 273.157,254.000 271.778 C 255.650 271.458,257.990 271.015,259.200 270.793 C 260.410 270.571,262.930 270.027,264.800 269.584 C 266.670 269.140,269.296 268.535,270.635 268.237 C 271.975 267.940,273.448 267.495,273.909 267.249 C 274.370 267.002,275.074 266.803,275.474 266.806 C 277.037 266.818,293.200 261.444,299.800 258.718 C 302.440 257.627,305.083 256.556,305.673 256.338 C 309.876 254.782,321.700 248.444,327.800 244.476 C 373.465 214.772,373.718 171.786,328.400 142.617 C 326.090 141.130,323.750 139.604,323.200 139.226 C 318.394 135.923,302.384 128.514,292.077 124.825 C 279.894 120.464,263.969 116.423,249.600 114.046 C 233.075 111.312,227.637 110.792,226.749 111.861 M252.600 154.026 C 255.134 155.235,258.601 158.318,259.036 159.749 C 259.178 160.217,259.520 160.870,259.796 161.200 C 260.813 162.417,261.333 166.973,260.788 169.900 C 257.661 186.708,233.052 185.591,231.718 168.580 C 230.825 157.189,242.369 149.143,252.600 154.026 M166.575 154.018 C 180.074 160.396,176.484 180.633,161.633 181.879 C 148.969 182.940,140.955 168.476,148.631 158.410 C 150.087 156.502,153.169 154.013,154.112 153.986 C 154.380 153.978,155.050 153.714,155.600 153.400 C 157.578 152.269,163.591 152.608,166.575 154.018 " stroke="none" fill="#ffffff" fill-rule="evenodd"></path><path id="path1" d="M186.015 81.898 C 184.594 81.978,183.242 82.199,183.012 82.390 C 182.782 82.581,180.234 82.927,177.351 83.158 C 174.468 83.389,171.651 83.752,171.092 83.965 C 170.532 84.178,168.933 84.465,167.537 84.603 C 166.142 84.741,163.740 85.108,162.200 85.417 C 154.746 86.918,151.025 87.746,146.800 88.846 C 144.270 89.505,141.210 90.279,140.000 90.567 C 138.790 90.855,137.350 91.274,136.800 91.499 C 136.250 91.724,134.450 92.303,132.800 92.785 C 131.150 93.268,129.350 93.862,128.800 94.106 C 128.250 94.349,127.080 94.769,126.200 95.040 C 123.486 95.874,120.307 97.059,117.850 98.153 C 116.558 98.729,115.354 99.200,115.174 99.200 C 114.474 99.200,103.259 104.633,96.600 108.198 C 91.733 110.804,85.560 114.703,79.400 119.060 C 68.580 126.715,57.340 138.109,50.710 148.145 C 49.382 150.155,47.978 152.261,47.592 152.824 C 45.933 155.240,41.465 164.945,40.174 168.937 C 30.948 197.465,38.113 225.344,61.069 250.247 C 63.121 252.472,64.800 254.499,64.800 254.750 C 64.800 255.001,59.795 260.200,53.678 266.303 C 44.308 275.653,39.331 280.939,31.930 289.400 C 30.769 290.727,21.814 301.448,21.069 302.401 C 19.790 304.040,17.774 306.645,17.510 307.000 C 17.346 307.220,16.782 307.940,16.257 308.600 C 13.117 312.546,6.800 321.739,6.800 322.363 C 6.800 322.550,6.530 322.926,6.200 323.200 C 5.870 323.474,5.600 324.126,5.600 324.649 C 5.600 325.709,6.189 325.928,6.545 325.000 C 6.671 324.670,6.977 324.400,7.224 324.400 C 7.471 324.400,8.691 323.708,9.936 322.863 C 11.181 322.018,13.460 320.541,15.000 319.582 C 17.948 317.744,21.886 315.255,25.658 312.843 C 26.900 312.050,30.203 309.960,32.998 308.200 C 35.793 306.440,40.362 303.539,43.152 301.754 C 55.145 294.077,73.651 282.800,74.256 282.800 C 74.410 282.800,74.821 282.553,75.169 282.251 C 75.516 281.949,77.420 280.832,79.400 279.769 C 81.380 278.705,83.720 277.433,84.600 276.942 C 90.241 273.794,90.465 273.764,93.800 275.731 C 101.036 279.999,115.451 286.883,121.200 288.817 C 121.750 289.002,124.270 289.892,126.800 290.796 C 132.499 292.832,133.633 293.181,143.600 295.968 C 159.702 300.470,192.409 305.065,193.837 303.026 C 194.308 302.354,194.400 297.735,194.400 274.791 C 194.400 253.989,194.516 247.244,194.880 246.880 C 195.197 246.563,196.928 246.398,199.980 246.394 C 202.521 246.391,204.788 246.256,205.017 246.094 C 205.758 245.572,205.553 226.804,204.806 226.782 C 199.745 226.628,195.297 226.237,194.900 225.912 C 194.503 225.587,194.400 210.675,194.400 153.794 C 194.400 88.774,194.341 82.063,193.767 81.843 C 193.142 81.603,191.043 81.618,186.015 81.898 M180.386 111.974 C 181.074 113.260,180.952 223.240,180.261 224.184 C 179.661 225.004,179.869 225.018,172.000 223.619 C 161.826 221.809,145.131 216.891,143.448 215.208 C 143.224 214.984,142.794 214.800,142.494 214.800 C 141.724 214.800,134.756 211.272,131.600 209.285 C 130.168 208.383,128.400 208.102,128.400 208.776 C 128.400 208.983,128.580 209.264,128.800 209.400 C 129.020 209.536,129.204 210.042,129.209 210.524 C 129.214 211.006,129.570 211.850,130.000 212.400 C 130.430 212.950,130.786 213.519,130.791 213.665 C 130.796 213.811,131.427 214.891,132.194 216.065 C 140.299 228.478,156.881 238.960,175.200 243.248 C 177.070 243.686,178.896 244.130,179.257 244.235 C 180.677 244.649,180.815 246.229,180.706 260.784 L 180.600 274.967 179.260 275.241 C 178.524 275.392,176.634 275.346,175.060 275.140 C 161.724 273.391,158.812 272.958,153.600 271.950 C 152.390 271.717,150.140 271.292,148.600 271.006 C 143.465 270.054,141.020 269.496,138.698 268.745 C 137.433 268.335,135.951 268.000,135.407 268.000 C 134.862 268.000,133.738 267.755,132.908 267.455 C 132.079 267.156,130.680 266.725,129.800 266.499 C 128.920 266.273,127.660 265.896,127.000 265.662 C 126.340 265.429,123.370 264.484,120.400 263.564 C 62.875 245.741,32.349 207.848,48.606 174.444 C 49.372 172.868,50.000 171.476,50.000 171.351 C 50.000 171.166,53.780 165.310,54.874 163.800 C 57.213 160.572,63.807 153.836,68.416 149.966 C 70.877 147.901,78.280 142.400,78.600 142.400 C 78.714 142.400,79.661 141.809,80.704 141.087 C 85.824 137.542,93.489 133.600,105.400 128.386 C 107.289 127.559,109.511 126.692,111.000 126.200 C 111.880 125.909,114.400 125.018,116.600 124.220 C 130.652 119.124,150.899 114.535,169.600 112.210 C 172.570 111.841,175.270 111.483,175.600 111.416 C 177.746 110.976,179.992 111.238,180.386 111.974 M155.600 153.400 C 155.050 153.714,154.380 153.978,154.112 153.986 C 153.169 154.013,150.087 156.502,148.631 158.410 C 140.955 168.476,148.969 182.940,161.633 181.879 C 176.484 180.633,180.074 160.396,166.575 154.018 C 163.591 152.608,157.578 152.269,155.600 153.400 " stroke="none" fill="#1496fb" fill-rule="evenodd"></path><path id="path2" d="M212.892 81.903 C 212.484 82.188,212.386 96.024,212.396 151.925 C 212.402 190.242,212.292 222.580,212.150 223.787 C 211.856 226.288,211.814 226.315,207.995 226.468 L 205.391 226.573 205.407 235.987 C 205.427 246.904,205.213 246.211,208.659 246.533 C 210.135 246.670,211.536 246.976,211.772 247.212 C 212.066 247.506,212.226 256.208,212.283 275.059 C 212.349 296.681,212.475 302.609,212.880 303.096 C 213.990 304.434,235.451 302.187,248.400 299.377 C 260.113 296.835,262.410 296.282,268.000 294.658 C 283.554 290.138,298.832 283.864,310.658 277.142 C 314.901 274.731,319.160 272.152,320.800 271.001 C 321.790 270.307,323.860 268.868,325.400 267.803 C 337.996 259.096,349.936 247.066,356.971 235.995 C 358.307 233.893,359.625 231.819,359.901 231.386 C 360.462 230.506,362.825 225.651,364.178 222.600 C 369.540 210.506,371.469 196.997,369.817 183.110 C 369.510 180.530,369.152 178.245,369.020 178.033 C 368.889 177.820,368.595 176.640,368.368 175.411 C 367.386 170.098,363.245 159.826,359.817 154.200 C 359.281 153.320,358.213 151.520,357.443 150.200 C 348.231 134.408,328.075 117.209,305.000 105.452 C 298.403 102.090,296.613 101.267,290.800 98.921 C 288.930 98.166,287.040 97.382,286.600 97.180 C 284.510 96.217,267.336 90.651,263.200 89.596 C 261.330 89.120,259.080 88.542,258.200 88.314 C 251.845 86.662,242.925 85.012,232.800 83.615 C 230.930 83.357,227.960 82.895,226.200 82.588 C 222.130 81.880,213.559 81.438,212.892 81.903 M234.207 111.785 C 249.111 113.551,264.988 116.674,278.000 120.398 C 290.900 124.090,296.250 126.077,310.200 132.363 C 313.615 133.902,321.542 138.087,323.200 139.226 C 323.750 139.604,326.090 141.130,328.400 142.617 C 373.718 171.786,373.465 214.772,327.800 244.476 C 321.700 248.444,309.876 254.782,305.673 256.338 C 305.083 256.556,302.440 257.627,299.800 258.718 C 293.200 261.444,277.037 266.818,275.474 266.806 C 275.074 266.803,274.370 267.002,273.909 267.249 C 273.448 267.495,271.975 267.940,270.635 268.237 C 269.296 268.535,266.670 269.140,264.800 269.584 C 262.930 270.027,260.410 270.571,259.200 270.793 C 257.990 271.015,255.650 271.458,254.000 271.778 C 246.875 273.157,243.897 273.643,239.000 274.225 C 236.140 274.565,232.847 274.982,231.682 275.152 C 229.574 275.460,226.820 275.353,226.413 274.947 C 225.902 274.437,225.980 246.603,226.495 245.600 C 227.041 244.537,227.138 244.500,236.400 241.794 C 254.740 236.435,271.032 224.138,277.089 211.083 C 278.443 208.166,277.694 208.291,269.511 212.346 C 265.490 214.339,261.390 216.251,260.400 216.595 C 248.208 220.824,244.641 221.803,234.800 223.622 C 228.647 224.759,227.466 224.878,226.800 224.432 C 225.934 223.850,225.883 112.904,226.749 111.861 C 227.412 111.062,228.050 111.056,234.207 111.785 M244.000 152.809 C 236.732 153.546,231.105 160.771,231.718 168.580 C 233.052 185.591,257.661 186.708,260.788 169.900 C 261.333 166.973,260.813 162.417,259.796 161.200 C 259.520 160.870,259.178 160.217,259.036 159.749 C 257.785 155.634,250.284 152.172,244.000 152.809 " stroke="none" fill="#fb75be" fill-rule="evenodd"></path></g></svg>